<svg width="281" height="381" viewBox="0 0 281 381" fill="none" xmlns="http://www.w3.org/2000/svg">
<g filter="url(#filter0_d_9_69)">
<path d="M73.9817 134.896C77.3726 131.061 82.2512 124.726 82.2512 124.726H83.8415L82.2512 119.959L94.9735 98.3486L101.653 109.154H104.515L100.381 103.116L110.876 104.387L117.874 82.4585L126.461 105.976C126.461 105.976 132.808 100.032 137.911 98.3486C148.556 94.8375 154.474 104.47 165.582 105.976C170.397 106.628 173.212 106.03 177.987 106.929C184.859 108.223 189.016 109.106 194.844 112.967C201.3 117.245 201.766 123.156 207.884 127.904C212.192 131.247 214.749 133.323 219.97 134.896C223.688 136.015 226.002 135.521 229.83 136.167C233.457 136.778 235.555 135.849 239.054 138.074C242.553 140.298 244.143 146.654 244.143 146.654C231.421 132.353 233.647 145.701 209.793 133.942L222.515 145.383C227.181 149.018 234.726 149.537 237.782 154.599C239.426 157.323 240.267 159.122 240.962 162.226C241.697 165.505 240.194 168.171 240.962 171.443C241.663 174.427 241.624 176.617 243.825 178.752C244.789 179.687 246.687 180.659 246.687 180.659C246.687 180.659 245.757 182.223 243.825 182.248C241.893 182.273 237.782 177.481 237.782 177.481C237.782 177.481 230.505 166.505 229.194 165.087C227.759 163.534 225.696 160.955 225.696 160.955C225.696 160.955 227.129 164.609 228.24 166.993C229.942 170.644 238.418 179.705 240.962 190.829C242.29 196.633 247.96 199.091 248.914 203.541C249.868 207.99 247.642 213.075 247.642 213.075C247.642 213.075 247.035 208.596 245.733 206.083C244.396 203.5 242.6 202.767 240.962 200.363C239.367 198.021 238.87 196.466 237.464 194.007C235.14 189.943 231.544 184.304 229.973 181.864C234.277 189.471 239.734 213.57 250.822 221.655C254.321 224.206 254.026 230.339 254.321 235.003C254.603 239.469 256.286 246.761 256.286 246.761C256.286 246.761 253.874 244.135 253.367 241.994C252.614 238.817 252.752 234.823 251.458 231.825C250.297 229.135 249.477 228.706 247.642 226.422C243.407 221.153 235.555 214.028 235.555 214.028C235.555 214.028 238.663 219.195 240.962 222.291C243.796 226.107 247.006 230.871 247.642 232.143C248.278 233.414 253.318 246.076 254.957 255.66C255.549 259.12 256.229 264.558 256.229 264.558C256.751 267.309 256.392 269.141 257.819 271.55C258.76 273.137 261 275.046 261 275.046C261 275.046 258.498 275.471 256.547 274.092C254.773 272.839 254.343 272.03 253.685 269.961C252.819 267.241 253.049 264.87 253.049 262.016C253.049 259.161 252.457 257.538 252.094 254.706C251.455 249.721 249.884 247.129 247.642 242.63C246.027 239.391 245.434 237.241 242.871 234.685C239.959 231.781 233.647 229.6 233.647 229.6C233.647 229.6 237.563 232.452 239.69 234.685C245.091 240.354 247.022 244.887 248.914 252.482C249.822 256.127 250.161 258.26 250.186 262.016C250.236 269.571 244.143 275.681 244.143 275.681C244.143 275.681 247.006 269.007 244.779 256.613C243.189 250.257 234.283 244.219 234.283 244.219C234.283 244.219 234.653 249.423 234.919 251.211C237.146 266.147 244.779 271.868 244.461 286.804C244.275 295.551 239.755 301.483 232.375 306.19C217.426 315.724 195.798 319.538 195.798 319.538C195.798 319.538 216.665 313.624 226.014 304.283C235.237 295.067 232.693 286.486 232.693 286.486C232.693 286.486 228.051 300.788 214.882 308.097C200.569 317.313 185.337 314.029 171.626 321.127C156.417 329 144.909 346.233 144.909 346.233C144.909 346.233 154.132 321.762 178.941 310.004C192.442 303.605 206.027 308.097 217.108 299.516C228.189 290.936 224.423 282.355 224.423 282.355C224.423 282.355 221.229 294.749 201.841 297.927C184.751 300.729 173.037 304.443 160.176 314.135C145.571 325.141 137.275 351 137.275 351C137.275 351 84.9497 331.966 83.8415 304.283C82.2512 264.558 91.0525 266.272 101.653 244.219C108.533 229.905 125.189 224.833 122.963 209.579C120.736 194.324 120.736 191.464 115.329 193.053C111.917 194.056 110.262 194.133 106.742 194.642C99.2431 195.727 94.2355 195.086 86.7041 195.913C76.2218 197.064 71.029 197.667 61.2593 201.634C54.0024 204.58 49.3357 212.545 41.8578 210.214C38.3005 209.106 38.7573 207.414 35.8146 205.13C30.7282 201.181 27.6689 202.569 24.6825 196.867C20.6408 189.15 16.5622 175.562 24.6826 172.396C37.7229 167.311 57.9606 153.014 73.9817 134.896Z" fill="url(#paint0_linear_9_69)" fill-opacity="0.5" shape-rendering="crispEdges"/>
<path d="M93.7013 93.8993L81.297 114.239L75.89 100.891L87.3401 82.4585L93.7013 93.8993Z" fill="url(#paint1_linear_9_69)" fill-opacity="0.5" shape-rendering="crispEdges"/>
<path d="M77.4803 67.2041L83.8415 78.0093L73.9817 95.1705L70.483 82.4585L77.4803 67.2041Z" fill="url(#paint2_linear_9_69)" fill-opacity="0.5" shape-rendering="crispEdges"/>
<path d="M69.2108 78.0093L75.89 63.7083L70.483 50.6785L63.1677 63.7083L69.2108 78.0093Z" fill="url(#paint3_linear_9_69)" fill-opacity="0.5" shape-rendering="crispEdges"/>
<path d="M61.5774 58.3057L67.3024 46.8649L61.5774 35.424L56.4884 46.8649L61.5774 58.3057Z" fill="url(#paint4_linear_9_69)" fill-opacity="0.5" shape-rendering="crispEdges"/>
<path d="M56.4884 41.4623L59.351 31.9282L53.3079 21.7586L51.0815 29.3858L56.4884 41.4623Z" fill="url(#paint5_linear_9_69)" fill-opacity="0.5" shape-rendering="crispEdges"/>
<path d="M48.855 25.2544L51.0815 18.2628L42.8119 10L48.855 25.2544Z" fill="url(#paint6_linear_9_69)" fill-opacity="0.5" shape-rendering="crispEdges"/>
</g>
<defs>
<filter id="filter0_d_9_69" x="0" y="0" width="281" height="381" filterUnits="userSpaceOnUse" color-interpolation-filters="sRGB">
<feFlood flood-opacity="0" result="BackgroundImageFix"/>
<feColorMatrix in="SourceAlpha" type="matrix" values="0 0 0 0 0 0 0 0 0 0 0 0 0 0 0 0 0 0 127 0" result="hardAlpha"/>
<feOffset dy="10"/>
<feGaussianBlur stdDeviation="10"/>
<feComposite in2="hardAlpha" operator="out"/>
<feColorMatrix type="matrix" values="0 0 0 0 1 0 0 0 0 1 0 0 0 0 1 0 0 0 0.77 0"/>
<feBlend mode="normal" in2="BackgroundImageFix" result="effect1_dropShadow_9_69"/>
<feBlend mode="normal" in="SourceGraphic" in2="effect1_dropShadow_9_69" result="shape"/>
</filter>
<linearGradient id="paint0_linear_9_69" x1="47.353" y1="10" x2="222.072" y2="313.94" gradientUnits="userSpaceOnUse">
<stop stop-color="#FFDD2F"/>
<stop offset="0.1875" stop-color="#FFC500"/>
<stop offset="0.431634" stop-color="#F171CD"/>
<stop offset="0.622952" stop-color="#DF54A4"/>
<stop offset="0.78589" stop-color="#A9468D"/>
<stop offset="1" stop-color="#783AB1"/>
</linearGradient>
<linearGradient id="paint1_linear_9_69" x1="47.353" y1="10" x2="222.072" y2="313.94" gradientUnits="userSpaceOnUse">
<stop stop-color="#FFDD2F"/>
<stop offset="0.1875" stop-color="#FFC500"/>
<stop offset="0.431634" stop-color="#F171CD"/>
<stop offset="0.622952" stop-color="#DF54A4"/>
<stop offset="0.78589" stop-color="#A9468D"/>
<stop offset="1" stop-color="#783AB1"/>
</linearGradient>
<linearGradient id="paint2_linear_9_69" x1="47.353" y1="10" x2="222.072" y2="313.94" gradientUnits="userSpaceOnUse">
<stop stop-color="#FFDD2F"/>
<stop offset="0.1875" stop-color="#FFC500"/>
<stop offset="0.431634" stop-color="#F171CD"/>
<stop offset="0.622952" stop-color="#DF54A4"/>
<stop offset="0.78589" stop-color="#A9468D"/>
<stop offset="1" stop-color="#783AB1"/>
</linearGradient>
<linearGradient id="paint3_linear_9_69" x1="47.353" y1="10" x2="222.072" y2="313.94" gradientUnits="userSpaceOnUse">
<stop stop-color="#FFDD2F"/>
<stop offset="0.1875" stop-color="#FFC500"/>
<stop offset="0.431634" stop-color="#F171CD"/>
<stop offset="0.622952" stop-color="#DF54A4"/>
<stop offset="0.78589" stop-color="#A9468D"/>
<stop offset="1" stop-color="#783AB1"/>
</linearGradient>
<linearGradient id="paint4_linear_9_69" x1="47.353" y1="10" x2="222.072" y2="313.94" gradientUnits="userSpaceOnUse">
<stop stop-color="#FFDD2F"/>
<stop offset="0.1875" stop-color="#FFC500"/>
<stop offset="0.431634" stop-color="#F171CD"/>
<stop offset="0.622952" stop-color="#DF54A4"/>
<stop offset="0.78589" stop-color="#A9468D"/>
<stop offset="1" stop-color="#783AB1"/>
</linearGradient>
<linearGradient id="paint5_linear_9_69" x1="47.353" y1="10" x2="222.072" y2="313.94" gradientUnits="userSpaceOnUse">
<stop stop-color="#FFDD2F"/>
<stop offset="0.1875" stop-color="#FFC500"/>
<stop offset="0.431634" stop-color="#F171CD"/>
<stop offset="0.622952" stop-color="#DF54A4"/>
<stop offset="0.78589" stop-color="#A9468D"/>
<stop offset="1" stop-color="#783AB1"/>
</linearGradient>
<linearGradient id="paint6_linear_9_69" x1="47.353" y1="10" x2="222.072" y2="313.94" gradientUnits="userSpaceOnUse">
<stop stop-color="#FFDD2F"/>
<stop offset="0.1875" stop-color="#FFC500"/>
<stop offset="0.431634" stop-color="#F171CD"/>
<stop offset="0.622952" stop-color="#DF54A4"/>
<stop offset="0.78589" stop-color="#A9468D"/>
<stop offset="1" stop-color="#783AB1"/>
</linearGradient>
</defs>
</svg>
